<?xml version="1.0" encoding="UTF-8"?>
<svg id="Layer_1" xmlns="http://www.w3.org/2000/svg" version="1.1" viewBox="0 0 424.99 325.31">
  <!-- Generator: Adobe Illustrator 30.1.0, SVG Export Plug-In . SVG Version: 2.1.1 Build 136)  -->
  <defs>
    <style>
      .st0 {
        fill: #d1d3d4;
      }

      .st1 {
        fill: #414042;
      }

      .st2 {
        fill: #231f20;
      }

      .st3 {
        fill: #ed1c24;
      }

      .st4 {
        fill: #fff;
      }

      .st5 {
        fill: #a97c50;
      }

      .st6 {
        fill: #939598;
      }

      .st7 {
        fill: #e6e7e8;
      }
    </style>
  </defs>
  <g id="rentegning">
    <g>
      <path class="st6" d="M95.08,205.12c-12.04-8.3-20.84-10.63-27.68-15.35-20.96-14.46-21.24-18.39-21.24-18.39,0,0-12.65-5.06-21.93-24.46,0,0-.84-2.53,0-8.44s-.84-11.81,9.28-37.12c0,0,5.06-5.06,8.44,0,0,0,0-3.37,5.9-10.12,0,0,32.05-25.31,84.35,0,0,0,1.69,2.53,16.03.84,0,0,22.78,0,22.78,2.53s5.06-3.37,9.28.84c0,0,4.22-2.53,9.28-3.37,0,0,5.06,2.53,9.28,0l2.42.17s.4-2.42,8.3-5.16h6.04l9.67-7.66h3.3l6.29-7.17,2.66.32,4.11-4.75-1.61-.89,6.93-8.7,2.5,1.21s18.66-28.73,32.12-37.26c0,0,2.24-2.84,7.33,2.09l17.81-20.5s4.79-5.39,15.26-1.2l7.63,2.09s5.39.6,16.91.9c0,0,14.21,5.69,16.61,21.4,0,0,.45,11.22-2.54,10.32s23.64,20.2,25.89,20.8c0,0,9.13.3,20.8-3.74,0,0,13.62-2.84,15.86,5.09,0,0,3.44,2.99-3.59,11.37,0,0,1.05,2.99-.3,14.36,0,0-2.54,1.35-11.07,28.28l-1.2,22.44s1.2-2.09.15,10.17c0,0,1.95,2.06,3.44,7.09,0,0,0,5.18-.3,9.82,0,0,6.28,29.78.45,50.72,0,0,4.19-1.35,1.35,13.02,0,0,2.24,1.2,2.54,2.69,0,0,1.35-.15-3.29,14.21,0,0,.45,17.38-6.88,21.11,0,0-65.94,7.92-74.56,0,0,0-35.3-2.92-79.22-18.76,0,0-26.13-8.62-48.92-13.06,0,0,.51-2.71-7.69-11.23,0,0-3.17-3.82-10.49-3.39l-8.08.87s-2.4,2.62-2.73-4.7c0,0-.66-5.79-7.87-7.87,0,0-6.12-3.17-20.43-2.29,0,0-4.81.55-11.14-4.15,0,0-4.59-.87.22-10.92,0,0,.33-4.15-1.75-3.39,0,0-.33-4.92-13.55,6.45,0,0-9.61,1.64-16.82,8.63s-6.29,4.18-6.29,4.18l-.04.03Z"/>
      <path class="st2" d="M353.43,269.25c-11.16,0-20.64-.88-23.99-3.53-3.67-.35-37.83-3.88-79.16-18.79-.24-.08-26.31-8.64-48.78-13.02l-.97-.19.18-.98h0s-.1-2.74-7.42-10.35c-.16-.19-3.03-3.47-9.71-3.08l-7.72.84c-.5.39-1.23.66-1.98.39-1.34-.49-2.01-2.34-2.17-6-.02-.14-.71-5.1-7.14-6.95l-.18-.07c-.06-.03-6.13-3.03-19.91-2.18-.16.02-5.15.52-11.66-4.24-.46-.15-1.38-.6-1.98-1.79-1.1-2.17-.54-5.64,1.66-10.3.04-.94-.11-1.97-.33-2.23,0,0-.05.02-.09.03l-1.25.46-.09-1.33s-.08-.06-.14-.08c-.4-.14-2.86-.43-11.76,7.22l-.21.18-.27.05c-.09.02-9.41,1.68-16.3,8.36-5.5,5.34-6.59,5.36-7.44,4.83-.3-.19-.5-.49-.56-.84-6.61-4.51-12.17-7.18-17.09-9.54-3.83-1.84-7.14-3.43-10.15-5.5-17.04-11.75-20.7-16.73-21.47-18.48-2.35-1.08-13.54-7.01-22.03-24.77l-.05-.12c-.04-.11-.91-2.82-.04-8.89.16-1.09.22-2.19.3-3.46.32-5.29.8-13.29,9.04-33.88l.08-.19.15-.15c.12-.12,2.86-2.83,5.95-2.52.98.1,1.88.48,2.67,1.13.64-1.77,2.15-4.67,5.67-8.69l.13-.13c.33-.26,33.15-25.4,85.41-.12l.25.12.1.15c.26.2,2.91,1.91,15.13.48h.12c20.58,0,23.35,1.92,23.72,3.06.22-.08.48-.18.69-.27,1.75-.7,4.91-1.97,7.78.36,1.4-.75,4.91-2.46,8.98-3.14l.32-.05.29.15s4.64,2.25,8.32.04l.27-.16,2.06.14c.72-1.11,2.77-3.05,8.57-5.06l.16-.06h5.86l9.67-7.66h3.2l6.33-7.23,2.66.32,2.95-3.42-1.57-.86,8.17-10.26,2.43,1.18c3.07-4.64,19.4-28.79,31.83-36.75.3-.31,1.08-.95,2.38-1.03,1.67-.11,3.52.72,5.52,2.47l17.13-19.72c.22-.25,5.38-5.85,16.33-1.49l7.5,2.06c.69.07,6.14.61,16.75.88h.18l.17.07c.6.24,14.77,6.08,17.23,22.17v.11c.1,2.15.21,9.29-1.97,10.98h0c4.29,4.1,22.14,18.15,24.51,19.18,1.25.02,9.75-.04,20.29-3.69l.12-.03c.59-.12,14.29-2.88,16.95,5.55.82.95,2.85,4.5-3.39,12.14.26,1.35.67,5.2-.4,14.23l-.06.52-.36.19c-.36.39-3.16,4.01-10.65,27.63l-1.15,21.48c.54.61.81,2.59.14,10.64.64.82,2.16,3.05,3.37,7.13l.04.29s0,5.17-.29,9.75c.5,2.43,5.91,29.65.69,49.99.2.1.4.23.59.4,1.76,1.57,1.97,5.81.62,12.94.75.5,1.92,1.45,2.32,2.66.4.52.98,1.97-3.18,14.89.03,1.97.05,18.04-7.43,21.85l-.16.08-.18.02c-1.77.21-29.55,3.5-51.1,3.5v-.02ZM202.61,232.08c22.43,4.45,48.07,12.87,48.33,12.96,43.3,15.62,78.64,18.69,78.99,18.72l.34.03.25.23c6.77,6.22,55.22,1.96,73.58-.23,6.53-3.57,6.19-19.94,6.19-20.11v-.17l.05-.16c2.81-8.69,3.34-11.85,3.42-12.94l-.15-.77c-.16-.77-1.44-1.69-2.04-2.01l-.65-.35.14-.73c1.81-9.15.61-11.27.19-11.7-.16-.17-.28-.16-.31-.16l-1.77.57.56-1.8c5.7-20.47-.4-49.95-.46-50.25l-.03-.13v-.14c.28-4.12.3-8.74.31-9.61-1.39-4.59-3.15-6.53-3.17-6.55l-.3-.32.03-.44c.31-3.63.41-5.91.43-7.33l-.8,1.4,1.47-26.9c6.78-21.4,9.86-26.98,11.07-28.42,1.22-10.54.32-13.58.31-13.61l-.17-.52.35-.44c6.18-7.36,3.7-9.97,3.68-9.99l-.19-.19-.1-.28c-1.9-6.7-13.7-4.57-14.64-4.39-11.68,4.03-20.71,3.78-21.09,3.77l-.22-.03c-1.65-.44-26.25-19.2-26.82-21.44l-.15-.57.43-.48c.17-.17.56-.42,1.2-.23.83-.34,1.43-4.85,1.26-9.27-2.17-14.03-14.31-19.83-15.83-20.5-11.3-.3-16.75-.89-16.8-.9l-.15-.03-7.74-2.13c-9.63-3.85-13.97.74-14.15.94l-18.49,21.28-.76-.74c-2.3-2.23-3.81-2.66-4.71-2.62-.78.03-1.14.43-1.16.45l-.23.21c-13.13,8.31-31.63,36.67-31.82,36.96l-.48.74-2.57-1.24-5.69,7.15,1.66.91-5.27,6.09-2.66-.32-6.24,7.12h-3.41l-9.67,7.66h-6.22c-6.75,2.37-7.49,4.38-7.5,4.4l-.15.9-.89-.14-2.12-.15c-3.99,2.2-8.43.55-9.65.02-4.67.85-8.59,3.17-8.63,3.19l-.67.4-.55-.55c-1.93-1.93-3.94-1.33-6.19-.43-1.11.45-1.98.8-2.73.29-.26-.18-.57-.52-.64-1.16-1.6-1.1-12.36-1.78-21.73-1.78-12.38,1.45-15.78-.16-16.69-1.03-26.62-12.84-47.78-12.18-60.86-9.36-13.5,2.91-21.39,8.66-22.2,9.27-5.41,6.21-5.59,9.38-5.59,9.41l-.12,3.09-1.72-2.55c-.74-1.1-1.57-1.69-2.55-1.79-1.84-.19-3.69,1.35-4.21,1.81-8.04,20.14-8.51,27.91-8.82,33.06-.08,1.31-.15,2.45-.32,3.62-.73,5.09-.15,7.56-.05,7.94,8.97,18.71,21.24,23.84,21.37,23.89l.58.23.04.55c.14.42,1.92,4.68,20.82,17.72,2.88,1.98,6.12,3.54,9.88,5.35,5.1,2.45,10.88,5.22,17.81,10l.17.11c.67-.42,2.07-1.49,4.86-4.19,6.75-6.54,15.39-8.51,17.07-8.85,6.91-5.91,11.38-8.32,13.66-7.36.44.18.74.46.95.76.47.03.8.23,1,.38,1.28.97,1.19,3.44,1.13,4.18v.19l-.09.17c-2.57,5.37-2.23,7.72-1.8,8.65.34.72.87.87.89.87l.19.05.19.12c5.89,4.37,10.4,3.96,10.44,3.96,13.68-.84,20.03,1.93,20.9,2.35,7.68,2.26,8.47,8.43,8.5,8.69.17,3.65.82,4.24.88,4.28-.03-.03.07-.1.13-.16l.25-.26.37-.05,8.08-.87c7.78-.47,11.22,3.57,11.37,3.74,5.94,6.17,7.47,9.49,7.82,11.03v-.04Z"/>
    </g>
    <g>
      <path class="st5" d="M62.69,286.11s-21.33-2.34-20.84-17.84c0,0-1.98-1.04,0-8.64,0,0,7.85-13.24,17.66-16.67,0,0,.49-2.7,12.99-1.72,0,0-5.15-2.45,0-15.69,0,0,5.39-6.86,10.79-8.09,0,0-.74-1.72,12.5-1.72,0,0-1.96,1.47-1.72-7.6l7.3-7.22,16.82-8.63s11.8-9.83,13.55-6.45c0,0,1.95-1.67,1.75,3.39s-4.89,4.53-.22,10.92c0,0,7.56,5.59,11.14,4.15,0,0,10.56-2.31,20.43,2.29,0,0,6.35.1,7.87,7.87,0,0-.47,7.26,2.73,4.7,0,0,13.28-3.7,18.57,2.51,0,0,7.95,6.7,7.69,11.23,0,0,1.7,5.75-1.24,9.19,0,0,22.31-.49,25,15.2,0,0,5.15.98,3.68,16.18,0,0,2.7,4.9-16.91,14.46,0,0-27.7,2.21-42.65,0,0,0-5.03-2.08-5.03.12,0,1.1-11.8.77-12.32-.73s10.24-4.17,18.09-7.24c0,0-44.86,11.52-50.5,8.83,0,0-.25.57-10.54.41,0,0-6.86-5.56-17.65-8.01,0,0-14.95,4.9-18.63,3.92s-10.3.86-10.3.86v.02Z"/>
      <path class="st2" d="M112.75,289.87c-1.02,0-2.18,0-3.5-.03h-.17l-.13-.11c-.07-.05-6.85-5.47-17.31-7.88-1.59.52-15.16,4.86-18.78,3.89-3.5-.94-9.97.84-10.03.86l-.09.03h-.1c-.22-.04-5.48-.63-10.76-3.17-7-3.35-10.63-8.51-10.52-14.95-.6-.6-1.64-2.6.01-9l.05-.13c.32-.54,7.95-13.25,17.71-16.81.45-.8,2.53-2.49,11.98-1.92-1.29-1.7-2.74-5.87.92-15.27l.07-.13c.22-.28,5.37-6.77,10.77-8.19,0-.02.03-.05.04-.07.7-1.07,4.51-1.65,11.31-1.72-.41-.97-.77-2.94-.66-7.12v-.2l7.58-7.45,16.77-8.61c1.16-.96,9.62-7.87,13.01-7.19.38.08.71.25.96.5.3-.12.67-.17,1.04,0,.82.4,1.16,1.69,1.07,4.06-.08,1.99-.83,3.21-1.43,4.18-.98,1.59-1.63,2.65,1.07,6.37,2.1,1.53,7.9,5.13,10.6,4.04.19-.05,10.85-2.3,20.74,2.26.9.07,6.77.78,8.23,8.26v.12c-.1,1.65.09,4.28.84,4.67.29.15.75-.13,1.08-.4l.18-.09c.55-.16,13.65-3.71,19.09,2.67.27.22,7.98,6.78,7.81,11.5.19.71,1.35,5.36-.77,8.75,1.88.05,6.14.33,10.66,1.73,7.81,2.43,12.58,7.12,13.81,13.58,1.21.52,5.01,3.21,3.75,16.48.1.29.23.93-.08,1.91-.81,2.55-4.44,6.89-17.13,13.08l-.18.05c-.28.02-27.93,2.18-42.77,0l-.12-.03c-1.34-.55-3.53-1.14-4.18-.7-.08.05-.16.14-.16.36,0,.71-.97.87-1.44.95-2.47.42-11.25.23-11.85-1.52-.05-.15-.09-.39.05-.68.5-1.01,3.18-2,8.21-3.68-13.48,3.19-35.68,8.02-40.22,6.32-.68.21-2.42.41-7.03.41v.02ZM109.44,288.84c7.63.12,9.54-.18,9.98-.29l.13-.29.47.22c4.33,2.07,34.7-4.89,50.16-8.86l.31.95c-2.73,1.07-5.87,2.11-8.64,3.02-3.82,1.26-8.54,2.82-9.11,3.61.15.11.67.39,2.27.65,3.52.56,8.19.43,9.04.04.05-.54.35-.85.59-1.02,1.29-.86,4.32.29,5.06.59,14.31,2.09,40.6.13,42.39,0,18.54-9.05,16.62-13.7,16.6-13.75l-.06-.12v-.15c1.4-14.4-3.23-15.63-3.28-15.64l-.33-.07-.07-.33c-1.08-6.3-5.51-10.7-13.15-13.08-5.77-1.8-11.3-1.7-11.35-1.7l-1.12.02.73-.85c2.73-3.18,1.16-8.67,1.14-8.72l-.02-.08v-.09c.25-4.23-7.43-10.75-7.5-10.82-4.85-5.69-16.84-2.75-18.02-2.44-.78.6-1.48.75-2.08.44-1.56-.81-1.44-4.63-1.38-5.56-1.44-7.2-7.13-7.4-7.37-7.4l-.2-.05c-9.6-4.48-20.01-2.28-20.11-2.26-3.72,1.5-11.23-4-11.55-4.24l-.11-.11c-3.15-4.31-2.23-5.81-1.16-7.54.6-.97,1.21-1.97,1.28-3.7.11-2.73-.44-3.08-.5-3.12-.13-.06-.37.09-.42.13l-.48.39-.29-.55c-.12-.22-.3-.35-.57-.41-2.5-.51-9.66,4.89-12.21,7.01l-.09.06-16.76,8.6-7.11,7.03c-.13,5.32.54,6.59.81,6.89h1.91l-1.2.9c-.17.13-.57.29-1,.1-9.05.04-10.91.95-11.26,1.21l.15.36-.59.13c-4.9,1.11-9.93,7.2-10.46,7.85-4.83,12.48-.27,14.96-.22,14.99l2.26,1.14-2.52-.19c-11.47-.9-12.46,1.33-12.47,1.35l-.05.29-.26.05c-9.19,3.22-16.77,15.43-17.36,16.39-1.76,6.83-.22,8-.2,8.01l.28.15-.04.3c-.2,6.21,3.14,11,9.93,14.25,4.76,2.28,9.65,2.97,10.37,3.06.87-.23,6.9-1.78,10.46-.83,2.9.77,14.23-2.56,18.35-3.92l.13-.04.14.03c9.94,2.26,16.68,7.2,17.71,8h.02Z"/>
    </g>
    <g>
      <path class="st1" d="M24.22,146.91s3.14-17.46,52.71,0c0,0,45.14,18.45,65.98,31.48s43.12,18.23,99.26,45.72c0,0,39.36,17.65,84.5,26.33,0,0,65.69,14.47,68.3,13.02l9.44,1.28s-67.62,7.64-74.56,0c0,0-47.89-6.35-74.15-16.98,0,0-31.38-11.54-54-14.85,0,0,2.85-4.35-12.34-14.1,0,0-1.35-2.55-13.91.36,0,0-2.74,3.03-2.73-4.7,0,0,1.64-5.25-7.87-7.87,0,0-3.87-3.28-20.43-2.29,0,0-9.08.27-11.14-4.15,0,0-3.99.22.22-10.92,0,0,1.63-3.16-1.75-3.39,0,0,.81-5.69-13.55,6.45,0,0-4.69-3.34-23.12,12.82,0,0-34.84-16.74-48.92-33.74,0,0-6.51-.01-18.54-18.2l-3.39-6.26h-.01Z"/>
      <path class="st2" d="M352.56,268.64c-11.12,0-20.34-.85-22.96-3.42-3.2-.43-48.87-6.77-74.1-16.99-.3-.11-31.57-11.56-53.88-14.82l-.77-.11.43-.66s2.19-4.18-12.2-13.41l-.11-.07-.06-.12h0s-1.7-2.07-13.22.58c-.4.38-1.13.82-1.86.54-1.11-.43-1.63-2.24-1.63-5.69l.02-.15s.38-1.31-.48-2.86c-1.04-1.88-3.48-3.39-7.04-4.37l-.19-.1s-4.06-3.13-20.08-2.18c-.39.01-9.12.22-11.5-4.18-.36-.08-.84-.3-1.22-.82-1.21-1.65-.77-5.27,1.3-10.75.2-.39.57-1.41.21-2.03-.22-.4-.74-.62-1.53-.68l-.54-.04.08-.53s.06-.49-.27-.67c-.5-.27-2.88-.53-12.45,7.56l-.3.25-.32-.23s-4.85-2.69-22.5,12.78l-.25.22-.3-.14c-.35-.17-34.89-16.87-48.96-33.71-1.34-.18-7.81-1.93-18.71-18.41l-3.49-6.45.03-.17c.02-.12.6-3.09,4.6-5.42,5.92-3.45,19.2-5.38,48.76,5.04.48.19,45.44,18.63,66.08,31.52,10.59,6.62,21.76,11.3,37.22,17.77,15.35,6.43,34.46,14.44,62,27.92.38.17,39.81,17.72,84.38,26.29,26.07,5.74,65.67,13.96,67.97,13.07l.14-.08.15.03,13.43,1.82-4,.45c-1.82.21-30.41,3.4-51.9,3.4l.02.02ZM202.36,232.51c22.37,3.39,53.2,14.67,53.51,14.79,25.92,10.49,73.57,16.89,74.04,16.95l.18.02.12.14c5.06,5.57,45.92,2.82,70.07.28l-5.29-.72c-4.55.92-57.65-10.67-68.43-13.04-44.67-8.59-84.2-26.19-84.6-26.37-27.52-13.48-46.62-21.48-61.96-27.91-15.5-6.5-26.7-11.19-37.36-17.85-20.56-12.85-65.45-31.25-65.9-31.44-29.11-10.25-42.09-8.45-47.85-5.14-3.12,1.8-3.96,4.01-4.14,4.61l3.29,6.09c11.62,17.57,18.05,17.94,18.11,17.94h.23l.15.18c13.16,15.9,45.04,31.79,48.46,33.47,15.94-13.92,21.67-13.37,23.12-12.81,7.16-6.02,11.53-8.46,13.34-7.46.5.28.71.75.77,1.16.9.14,1.53.53,1.88,1.14.69,1.23-.14,2.86-.17,2.93-2.5,6.63-1.97,8.94-1.42,9.73.33.47.74.46.74.47h.32l.15.29c1.9,4.07,10.59,3.86,10.68,3.86,15.37-.91,19.96,1.83,20.67,2.34,3.85,1.08,6.4,2.71,7.57,4.86.93,1.7.66,3.17.57,3.53,0,4.1.82,4.63.99,4.69.31.12.77-.28.88-.4l.1-.11.15-.04c11.42-2.64,13.88-.89,14.38-.24,9.5,6.11,12.09,10.21,12.6,12.57.14.64.12,1.14.05,1.49h0Z"/>
    </g>
    <path class="st2" d="M118.73,222.23c-2.27,0-4.51-.64-6.55-1.22l-15.33-4.4.28-.96,15.33,4.4c2.54.73,5.43,1.56,8.16,1,1.54-.31,2.94-1.03,4.42-1.79,1.02-.52,2.06-1.06,3.17-1.45,1.58-.57,3.24-.83,4.85-1.08l.16.99c-1.56.24-3.17.5-4.66,1.03-1.04.37-2.06.9-3.05,1.4-1.48.76-3,1.54-4.68,1.88-.7.14-1.39.2-2.09.2h-.01Z"/>
    <path class="st2" d="M143.05,231.07l-.14-.99,8.51-1.25c3.98-.58,8.1-1.19,11.93-2.58,2.95-1.08,7.02-3.15,9.61-6.9l.82.57c-2.17,3.14-5.66,5.65-10.09,7.27-3.92,1.43-8.09,2.04-12.12,2.63l-8.51,1.25h-.01Z"/>
    <path class="st2" d="M157,264.63c-2.59,0-5.18-.32-7.69-.63-1.81-.23-3.69-.46-5.53-.56l.06-1c1.88.11,3.77.34,5.6.57,2.73.34,5.54.68,8.31.62,6.96-.18,13.8-3.04,19.83-5.56l13.91-5.81c1.32-.55,2.47-1.09,3.04-2.1.26-.46.38-.99.51-1.56.05-.2.09-.4.15-.6.72-2.72,2.67-5.07,5.21-6.27l.43.9c-2.28,1.08-4.03,3.19-4.67,5.62-.05.19-.09.38-.14.57-.14.61-.29,1.24-.61,1.82-.79,1.39-2.37,2.05-3.52,2.53l-13.91,5.81c-6.11,2.56-13.04,5.45-20.19,5.64h-.79Z"/>
    <path class="st2" d="M137.58,251.99c-5.03-1.66-10.22-3.37-15.43-4.65-7.57-1.86-15.12-2.85-22.42-2.94-.81-.01-1.65.05-2.54.11-1.75.12-3.55.25-5.21-.17-1.16-.29-2.13-.72-3.07-1.14-1.44-.63-2.81-1.23-4.66-1.26l-12.14-.19.02-1,12.14.19c2.05.03,3.57.7,5.04,1.35.91.4,1.84.81,2.92,1.08,1.5.38,3.22.26,4.89.14.87-.06,1.77-.12,2.62-.11,7.38.09,15,1.09,22.65,2.97,5.24,1.29,10.45,3,15.49,4.67l-.3.96h0Z"/>
    <g>
      <path class="st7" d="M182.79,197.29s8.13-11.25,14.44-40.79c0,0-65.46-35.84-82.16-41.36,0,0-36.21-19.68-73.13-13.78,0,0-2.4-5.11-8.44,0,0,0-9.76,22.29-8.23,41.28,0,0,3.05-7.53,25.96-3.48,0,0,20.88,2.34,58.28,21.99,0,0,21.38,10.58,33.4,17.25,0,0,31.52,17.69,39.88,18.9h0Z"/>
      <path class="st2" d="M183.02,197.83l-.3-.04c-8.36-1.21-38.77-18.23-40.06-18.96-11.87-6.59-33.17-17.13-33.38-17.24-36.87-19.37-57.9-21.91-58.11-21.94-22.13-3.91-25.42,3.11-25.45,3.18l-.8,1.85-.16-2.01c-1.52-18.89,8.18-41.29,8.27-41.52l.05-.11.09-.07c2.26-1.92,4.32-2.69,6.12-2.29,1.61.35,2.53,1.54,2.9,2.13,36.55-5.69,72.74,13.69,73.1,13.89,16.47,5.43,81.51,41,82.16,41.36l.33.18-.08.36c-6.25,29.31-14.44,40.86-14.52,40.98l-.18.25h.02ZM39.17,137.46c3.27,0,7.27.34,12.15,1.2.18.02,21.38,2.57,58.42,22.03.2.1,21.51,10.66,33.41,17.26.31.18,30.78,17.24,39.41,18.79,1.2-1.81,8.42-13.53,14.1-39.98-5.04-2.75-65.89-35.91-81.75-41.14-.44-.23-36.57-19.57-72.89-13.76l-.37.06-.16-.34s-.76-1.56-2.41-1.91c-1.46-.31-3.2.36-5.16,2.01-.7,1.65-9.15,21.9-8.24,39.57,1.43-1.48,5.02-3.78,13.5-3.78h-.01Z"/>
    </g>
    <path class="st2" d="M188.89,181.86l-51.64-27.31c-9.11-4.82-18.52-9.79-28.17-13.85-4.9-2.06-9.83-3.87-15.3-5.86-13.78-5.01-29.41-10.69-45.6-10.82-7.24-.06-14.54,1.01-21.6,2.04l-.14-.99c7.1-1.04,14.45-2.1,21.75-2.06,16.37.13,32.08,5.84,45.94,10.88,5.48,1.99,10.42,3.81,15.34,5.88,9.69,4.07,19.13,9.06,28.25,13.89l51.64,27.31-.47.88h0Z"/>
    <path class="st2" d="M187.87,167.58l-.29-.69c-1.55-3.65-2.7-7.48-3.41-11.38l.98-.18c.66,3.59,1.69,7.12,3.07,10.5.88-.77,1.9-1.39,2.99-1.8l.35.94c-1.19.45-2.28,1.17-3.17,2.08l-.52.54h0Z"/>
    <path class="st2" d="M179.89,163.71c-.96-5.15-2.54-10.17-4.68-14.95l.91-.41c2.18,4.85,3.78,9.95,4.75,15.18l-.98.18h0Z"/>
    <rect class="st2" x="168.27" y="144.51" width="1" height="21.35" transform="translate(-35.62 51.32) rotate(-15.66)"/>
    <path class="st2" d="M160.9,160.58c-1.03-2.61-1.06-5.45-1.1-8.19,0-.83-.02-1.65-.06-2.47-.2-4.4-1.46-7.45-3.74-9.06l.58-.82c2.55,1.8,3.95,5.1,4.16,9.83.04.83.05,1.66.06,2.5.03,2.65.07,5.39,1.03,7.83l-.93.37h0Z"/>
    <path class="st2" d="M152.76,154.05c-.69-6.04-2.09-12-4.17-17.71l.94-.34c2.11,5.79,3.53,11.82,4.23,17.94l-.99.11h0Z"/>
    <path class="st2" d="M143.93,149.98c-1.02-6.02-2.5-12.02-4.4-17.82l.95-.31c1.92,5.85,3.41,11.9,4.43,17.97l-.99.17h.01Z"/>
    <path class="st2" d="M134.32,145.78c-1.27-6.48-3.07-12.9-5.36-19.09l.94-.35c2.31,6.24,4.13,12.72,5.4,19.25l-.98.19Z"/>
    <rect class="st2" x="123.56" y="123.54" width="1" height="19.6" transform="translate(-24.94 28.6) rotate(-11.96)"/>
    <rect class="st2" x="112.41" y="120.63" width="1" height="13.92" transform="translate(-33.33 40.16) rotate(-17.62)"/>
    <rect class="st2" x="104.2" y="113.9" width="1" height="20.6" transform="translate(-37.68 45.99) rotate(-21.09)"/>
    <path class="st2" d="M94.5,124.36c-1.16-4.4-2.84-8.67-5-12.68l.88-.47c2.2,4.08,3.91,8.42,5.09,12.9l-.97.25Z"/>
    <rect class="st2" x="81.91" y="106.31" width="1" height="20.3" transform="translate(-42.76 48) rotate(-26.04)"/>
    <path class="st2" d="M63.38,118.87c-1.77-5.71-4.9-11.01-9.05-15.31l.72-.69c4.26,4.42,7.47,9.85,9.29,15.71l-.96.3h0Z"/>
    <path class="st2" d="M53.06,117.48c-2.26-5.1-5.06-9.99-8.3-14.53l.81-.58c3.29,4.59,6.11,9.54,8.4,14.71l-.91.41h0Z"/>
    <rect class="st2" x="40.04" y="102.08" width="1" height="17.23" transform="translate(-49.49 34.6) rotate(-29.68)"/>
    <path class="st2" d="M62.07,112.35l-.6-.8c3.48-2.58,7.35-4.52,11.51-5.75l.28.96c-4.04,1.19-7.81,3.07-11.19,5.59Z"/>
    <rect class="st2" x="71.88" y="112.63" width="13.94" height="1" transform="translate(-43.41 49.34) rotate(-27.57)"/>
    <path class="st2" d="M78.12,124.1l-.44-.9c3.6-1.76,7.2-3.64,10.69-5.59l.49.87c-3.51,1.96-7.13,3.85-10.74,5.61h0Z"/>
    <rect class="st2" x="91.2" y="121.29" width="15.59" height="1" transform="translate(-41.7 52.24) rotate(-24.59)"/>
    <path class="st2" d="M97.91,130.69l-.07-1c1.83-.12,3.51-1.17,5.13-2.19.32-.2.65-.41.97-.6,3.45-2.08,7.38-3.47,11.36-4l.13.99c-3.85.52-7.65,1.85-10.98,3.87-.32.19-.64.39-.95.59-1.72,1.08-3.51,2.2-5.59,2.34h0Z"/>
    <rect class="st2" x="111.33" y="129.88" width="16.19" height="1" transform="translate(-46.59 69.55) rotate(-27.39)"/>
    <path class="st2" d="M116.93,140.41l-.36-.93c5.21-2.01,10.42-4.23,15.47-6.61l.43.9c-5.07,2.39-10.3,4.62-15.53,6.64h0Z"/>
    <rect class="st2" x="128.51" y="138.42" width="18.13" height="1" transform="translate(-41.56 60.59) rotate(-21.66)"/>
    <path class="st2" d="M137.61,147.51l-.33-.94c5.73-2.03,11.37-4.46,16.77-7.23l.46.89c-5.44,2.79-11.12,5.24-16.89,7.28h-.01Z"/>
    <path class="st2" d="M149.91,155.19l-.28-.96c7.19-2.1,14.37-4.58,21.33-7.36l.37.93c-6.99,2.8-14.2,5.29-21.42,7.39h0Z"/>
    <path class="st2" d="M165.5,159.21l-.33-.94c4.95-1.74,9.84-3.8,14.53-6.14l.45.9c-4.73,2.35-9.66,4.44-14.65,6.19h0Z"/>
    <path class="st2" d="M165.83,165.82l-.25-.97c3.5-.88,6.89-2.41,10.17-3.88,3.98-1.79,8.1-3.64,12.5-4.39l.17.99c-4.27.73-8.33,2.55-12.25,4.32-3.32,1.49-6.75,3.03-10.34,3.94h0Z"/>
    <path class="st2" d="M46.32,113.97l-.58-.81c4.76-3.39,9.72-6.61,14.76-9.58l.51.86c-5.01,2.95-9.95,6.16-14.69,9.53Z"/>
    <path class="st2" d="M34.49,119.44l-.74-.67c3.54-3.92,7.2-7.83,10.88-11.61l.72.7c-3.67,3.77-7.32,7.67-10.85,11.58h-.01Z"/>
    <path class="st2" d="M39.49,119.92c-3.97-2.25-6.88-6.26-7.78-10.73l.98-.2c.85,4.19,3.57,7.95,7.29,10.06,0,0-.49.87-.49.87Z"/>
    <path class="st2" d="M30.94,118.04l-.85-.53c3.19-5.11,7.48-9.65,12.4-13.13l.58.82c-4.81,3.4-9.01,7.84-12.13,12.84Z"/>
    <path class="st2" d="M182.18,192.57c-1.12-4.05-2.94-7.84-5.39-11.26l.81-.58c2.52,3.51,4.38,7.41,5.54,11.57l-.96.27h0Z"/>
    <path class="st2" d="M175.72,190.81c-1.71-3.19-3.06-6.58-4.03-10.06l.96-.27c.94,3.41,2.27,6.73,3.94,9.86l-.88.47h0Z"/>
    <path class="st2" d="M170.33,189.29c-1.25-3.83-2.78-7.6-4.55-11.22l.9-.44c1.79,3.66,3.34,7.48,4.61,11.35l-.95.31h0Z"/>
    <rect class="st2" x="161.25" y="174.86" width="1" height="11.22" transform="translate(-63.55 91.17) rotate(-26.51)"/>
    <path class="st2" d="M158.14,184.1c-1.18-3.34-3.06-6.49-5.44-9.12l.74-.67c2.46,2.72,4.41,5.99,5.64,9.46l-.94.33h0Z"/>
    <path class="st2" d="M152.37,181.09c-1.57-4.24-3.7-8.25-6.34-11.93l.81-.58c2.69,3.75,4.87,7.84,6.47,12.16l-.94.35h0Z"/>
    <rect class="st2" x="143.7" y="166.03" width="1" height="12.85" transform="translate(-63.2 85.74) rotate(-27.41)"/>
    <rect class="st2" x="138.69" y="164.31" width="1" height="13.02" transform="translate(-68.53 97.28) rotate(-31.33)"/>
    <path class="st2" d="M135.81,172.59c-1.47-4.14-3.52-8.05-6.07-11.62l.81-.58c2.61,3.65,4.7,7.64,6.2,11.87l-.94.33h0Z"/>
    <rect class="st2" x="126.37" y="157.72" width="1" height="11.63" transform="translate(-59.09 72.65) rotate(-26.15)"/>
    <rect class="st2" x="119.59" y="155.27" width="1" height="10.41" transform="translate(-59.92 72.32) rotate(-27.1)"/>
    <path class="st2" d="M115.51,162.67c-1.69-3.75-3.73-7.37-6.05-10.77l.83-.57c2.36,3.45,4.43,7.12,6.14,10.93l-.91.41h0Z"/>
    <rect class="st2" x="106.65" y="148.07" width="1" height="11.91" transform="translate(-51.89 54.47) rotate(-23.13)"/>
    <path class="st2" d="M104.91,157.19c-1.16-3.24-2.67-6.35-4.51-9.26l.85-.53c1.88,2.97,3.43,6.15,4.61,9.46l-.94.34h-.01Z"/>
    <path class="st2" d="M98.67,154.76c-1.58-3.85-3.54-7.56-5.83-11.04l.83-.55c2.32,3.53,4.32,7.3,5.92,11.21l-.92.38Z"/>
    <rect class="st2" x="90.03" y="141.03" width="1" height="10.55" transform="translate(-58.41 60.17) rotate(-28.21)"/>
    <path class="st2" d="M86.58,148.49c-1.29-3.52-3.03-6.87-5.17-9.94l.82-.57c2.2,3.15,3.98,6.57,5.29,10.17l-.94.34Z"/>
    <rect class="st2" x="78.25" y="135.92" width="1" height="11.67" transform="translate(-62.18 61.54) rotate(-31.3)"/>
    <path class="st2" d="M75,143.69c-1.82-3.02-3.83-5.96-5.97-8.76l.79-.61c2.17,2.82,4.19,5.8,6.03,8.85l-.86.52h.01Z"/>
    <path class="st2" d="M68.07,142.45c-2.12-3.63-4.76-6.93-7.84-9.79l.68-.73c3.16,2.93,5.86,6.29,8.03,10.01l-.86.5h-.01Z"/>
    <path class="st2" d="M60.47,140.39c-1.64-2.56-3.61-4.89-5.88-6.91l.67-.75c2.34,2.08,4.38,4.48,6.06,7.12l-.84.54h-.01Z"/>
    <rect class="st2" x="47.49" y="130.73" width="1" height="9.2" transform="translate(-82.68 75.8) rotate(-45.98)"/>
    <path class="st2" d="M45.43,138.27c-3.48-2.93-6.68-6.22-9.53-9.78l.78-.62c2.57,3.21,5.43,6.2,8.53,8.9l.06-.06.83.82-.67.74Z"/>
    <path class="st2" d="M39.68,138.06c-2.58-2.55-6.34-6-8.92-7.95l.57-.82c3.48,2.17,6.54,4.9,9.09,8.1,0,0-.74.67-.74.67Z"/>
    <rect class="st2" x="28.18" y="130.78" width="1" height="8.41" transform="translate(-77.1 46.37) rotate(-38.05)"/>
    <path class="st2" d="M177.37,186.79l-.3-.95c2.17-.68,4.22-1.84,5.94-3.33l.66.75c-1.82,1.59-3.99,2.81-6.3,3.54h0Z"/>
    <path class="st2" d="M171.13,183.64l-.23-.97c1.47-.35,2.88-.92,4.17-1.69l.52.86c-1.38.83-2.89,1.44-4.46,1.81h0Z"/>
    <path class="st2" d="M164.38,180.53l-.19-.98c1.96-.38,3.89-.99,5.72-1.79l.4.92c-1.9.84-3.89,1.46-5.93,1.86h0Z"/>
    <path class="st2" d="M158.99,180.04l-.27-.96c2.22-.62,4.29-1.62,6.17-2.95l.58.81c-1.97,1.4-4.15,2.45-6.48,3.1Z"/>
    <path class="st2" d="M153.09,177.48l-.16-.99c.53-.09,1.04-.39,1.54-.69l5.12-3.07.51.86-5.12,3.07c-.55.33-1.17.7-1.89.82h0Z"/>
    <path class="st2" d="M147.22,175.46l-.35-.93c2.2-.83,4.27-1.96,6.16-3.36l.59.8c-1.96,1.45-4.12,2.63-6.4,3.49Z"/>
    <path class="st2" d="M141.27,170.75h-.12l.08-1c.26.03.55-.17.86-.38l2.96-2.02.56.83-2.96,2.02c-.33.22-.81.55-1.39.55h0Z"/>
    <rect class="st2" x="135.67" y="166.42" width="4.55" height="1" transform="translate(-64.54 90.17) rotate(-29.67)"/>
    <rect class="st2" x="129.88" y="163.88" width="6.68" height="1" transform="translate(-56.32 70.34) rotate(-24.59)"/>
    <path class="st2" d="M124.5,164.61l-.32-.95c3.4-1.16,6.79-2.5,10.06-3.98l.41.91c-3.3,1.5-6.72,2.85-10.15,4.02h0Z"/>
    <path class="st2" d="M119.07,161.82c-.29,0-.58-.03-.88-.09l.21-.98c1.39.3,2.73-.41,4.15-1.17,1.23-.66,2.51-1.34,3.93-1.4l.05,1c-1.2.06-2.32.65-3.51,1.29-1.26.67-2.55,1.36-3.95,1.36h0Z"/>
    <path class="st2" d="M115.05,158.59c-.52,0-1-.09-1.46-.27l.37-.93c1.12.45,2.55.15,4.37-.92l.53-.32c1.34-.81,2.73-1.65,4.36-1.66v1c-1.34,0-2.61.77-3.84,1.51l-.54.32c-1.43.84-2.69,1.26-3.79,1.26h0Z"/>
    <path class="st2" d="M108.09,156.11l-.21-.98c2.94-.65,5.79-1.91,8.24-3.65l.58.82c-2.56,1.82-5.54,3.14-8.6,3.81h0Z"/>
    <path class="st2" d="M98.68,154.1l-.27-.96c3.61-1.02,7.02-2.6,10.13-4.69l.56.83c-3.2,2.16-6.7,3.78-10.42,4.83h0Z"/>
    <path class="st2" d="M91.44,147.96l-.12-.99c2.49-.3,4.84-1.62,6.92-2.78l.49.87c-2.16,1.21-4.6,2.58-7.29,2.9h0Z"/>
    <path class="st2" d="M80.13,143.88l-.27-.96c2.48-.7,4.85-1.72,7.06-3.06l.52.86c-2.28,1.38-4.74,2.44-7.3,3.16h0Z"/>
    <path class="st2" d="M74.25,140.93l-.46-.89c1.55-.8,3.02-1.74,4.39-2.8l.61.79c-1.42,1.1-2.95,2.08-4.55,2.9h.01Z"/>
    <path class="st2" d="M67.76,139.34l-.3-.95c1.11-.35,2.01-1.16,2.96-2.02,1.01-.91,2.05-1.86,3.42-2.25l.28.96c-1.14.33-2.06,1.16-3.02,2.04-.99.9-2.01,1.82-3.34,2.23h0Z"/>
    <path class="st2" d="M62.39,139.19l-.47-.88c2.61-1.4,5.16-2.98,7.58-4.69l.58.82c-2.45,1.73-5.04,3.33-7.69,4.75Z"/>
    <path class="st2" d="M52.98,139.58l-.5-.87c4.11-2.36,8.11-5,11.89-7.86l.6.8c-3.81,2.88-7.85,5.55-11.99,7.93h0Z"/>
    <path class="st2" d="M50.09,137.94l-.53-.85c3.37-2.08,6.61-4.45,9.61-7.03l.65.76c-3.05,2.61-6.32,5.01-9.74,7.12h0Z"/>
    <path class="st2" d="M45.16,137.79l-.67-.74c2.7-2.42,5.54-4.74,8.46-6.89l.59.8c-2.89,2.13-5.71,4.43-8.38,6.83h0Z"/>
    <path class="st2" d="M39.54,137l-.74-.67c2.62-2.92,5.5-5.64,8.54-8.1l.63.78c-3.01,2.43-5.84,5.12-8.43,7.99h0Z"/>
    <rect class="st2" x="31.88" y="132.41" width="12.59" height="1" transform="translate(-83.08 66.43) rotate(-45.24)"/>
    <rect class="st2" x="28.69" y="131.18" width="7.73" height="1" transform="translate(-78.35 53.58) rotate(-40.96)"/>
    <path class="st2" d="M327.12,184.59c-1.27,0-2.27-1.34-2.27-3.04s1-3.04,2.27-3.04,2.27,1.34,2.27,3.04-1,3.04-2.27,3.04ZM327.12,179.51c-.69,0-1.27.94-1.27,2.04s.58,2.04,1.27,2.04,1.27-.94,1.27-2.04-.58-2.04-1.27-2.04Z"/>
    <path class="st2" d="M327,186.82c-2.57,0-4.65-2.36-4.65-5.27s2.09-5.27,4.65-5.27,4.66,2.36,4.66,5.27-2.09,5.27-4.66,5.27ZM327,177.28c-2.01,0-3.65,1.92-3.65,4.27s1.64,4.27,3.65,4.27,3.66-1.92,3.66-4.27-1.64-4.27-3.66-4.27Z"/>
    <path class="st2" d="M296.86,176.13c-1.27,0-2.27-1.34-2.27-3.04s1-3.04,2.27-3.04,2.27,1.34,2.27,3.04-1,3.04-2.27,3.04ZM296.86,171.05c-.69,0-1.27.94-1.27,2.04s.58,2.04,1.27,2.04,1.27-.94,1.27-2.04-.58-2.04-1.27-2.04Z"/>
    <path class="st2" d="M296.75,178.36c-2.57,0-4.66-2.36-4.66-5.27s2.09-5.27,4.66-5.27,4.65,2.36,4.65,5.27-2.09,5.27-4.65,5.27ZM296.75,168.82c-2.02,0-3.66,1.92-3.66,4.27s1.64,4.27,3.66,4.27,3.65-1.92,3.65-4.27-1.64-4.27-3.65-4.27Z"/>
    <path class="st2" d="M355.98,201.95l-.87-.49c11.05-19.61,30.66-34.72,52.44-40.4l.25.97c-21.53,5.62-40.9,20.55-51.83,39.93h0Z"/>
    <path class="st2" d="M359.26,203.69l-.82-.57c5.67-8.15,11.52-16.58,19.44-22.95,8.55-6.88,18.86-10.87,28.84-14.73l.36.93c-9.91,3.84-20.15,7.8-28.58,14.58-7.81,6.28-13.62,14.65-19.25,22.74h.01Z"/>
    <path class="st2" d="M281.74,181.11c-2.39-5.74-5.04-11.77-8.94-16.95-2.98-3.96-8.03-9.08-15.09-10.97-2.53-.68-5.22-.91-7.82-1.12l-.75-.06c-12.84-1.1-25.67-3.29-38.14-6.53l.25-.97c12.42,3.22,25.2,5.41,37.98,6.5l.75.06c2.64.22,5.38.45,8,1.15,7.34,1.97,12.55,7.25,15.63,11.34,3.97,5.27,6.66,11.37,9.07,17.16l-.92.38h-.02Z"/>
    <path class="st2" d="M286.74,183.9c-3.12-9.86-10.7-27.28-26.39-33.17-4.81-1.81-10.06-2.4-15.14-2.97l-1.78-.2c-12.26-1.42-24.52-3.71-36.46-6.83l.25-.97c11.89,3.1,24.11,5.39,36.32,6.8l1.78.2c5.14.58,10.45,1.17,15.38,3.02,16.09,6.04,23.82,23.77,26.99,33.81l-.95.3h0Z"/>
    <path class="st2" d="M47.72,270.99c-.47-2.27.17-4.56.75-6.57.91-3.19,1.93-6.81,4.43-9.45,1.29-1.37,2.89-2.37,4.42-3.34,3.3-2.08,6.72-4.22,10.48-5.58l.34.94c-3.66,1.32-7.03,3.44-10.29,5.49-1.49.93-3.02,1.9-4.23,3.18-2.33,2.47-3.32,5.96-4.19,9.04-.54,1.91-1.15,4.07-.73,6.09l-.98.21h0Z"/>
    <path class="st2" d="M71.53,273.31c-.94,0-1.81-.74-2.15-1.62-.36-.94-.22-1.96-.11-2.86.07-.54.13-1.07.09-1.55l-2.32,3.1c-.55.73-1.23,1.64-2.21,2.11-1.03.5-2.51.39-3.2-.65l-.1-.16.03-.19c.28-1.98.66-3.95,1.13-5.9l-3.57,5.83c-.21.34-.5.81-1.01,1.04-.9.41-1.92-.21-2.31-1.04-.35-.75-.28-1.58-.23-2.25.13-1.59.27-3.24.74-4.83l.44-1.51c1.47-5.09,2.85-9.9,7.5-13.12l.57.82c-4.36,3.01-5.63,7.44-7.11,12.57l-.44,1.52c-.44,1.49-.57,3.08-.7,4.63-.05.58-.1,1.24.14,1.75.18.38.65.7.99.54.21-.09.38-.35.56-.65l7.47-12.19-1.15,3.76c-.89,2.92-1.56,5.93-2,8.95.42.43,1.25.45,1.82.17.77-.37,1.34-1.14,1.84-1.81l3.42-4.57.36.73c.46.93.38,1.97.25,2.96-.12.89-.23,1.74.04,2.45.23.61.91,1.14,1.48.93.27-.1.5-.35.71-.59,1.21-1.38,2.16-2.96,2.83-4.67l.29-.75.54.59c.49.54.46,1.22.42,1.82-.02.34-.04.66.04.92.1.34.36.53.57.63.42.22.99.25,1.45.09.84-.3,1.46-1.01,2.19-1.9l.78.63c-.65.8-1.46,1.79-2.63,2.21-.71.25-1.57.2-2.24-.14-.54-.27-.92-.72-1.07-1.25-.09-.32-.1-.65-.09-.96-.63,1.23-1.4,2.38-2.32,3.43-.29.33-.63.69-1.12.87-.21.08-.42.11-.62.11h.01Z"/>
    <path class="st2" d="M122.35,285.8c-.53,0-1.02-.23-1.39-.67-.67-.78-.91-2.13-.57-3.21.14-.45.33-.88.51-1.3.06-.14.12-.28.18-.42-1.43,1.83-3.28,3.35-5.36,4.38-.69.34-1.59.69-2.46.36-1.36-.51-1.63-2.19-1.44-3.6.55-3.99,2.95-7.71,6.3-9.96-2.25.36-4.54,1.72-6.29,3.83-2.09,2.51-3.29,5.65-4.44,8.68l-.93-.36c1.19-3.11,2.41-6.32,4.61-8.96,2.47-2.96,5.95-4.58,9.09-4.23l1.76.2-1.6.75c-3.96,1.86-6.9,5.86-7.5,10.19-.14.98,0,2.23.8,2.53.51.19,1.16-.07,1.67-.32,2.63-1.3,4.86-3.43,6.27-6l.66-1.2.27,1.34c.23,1.15-.22,2.19-.66,3.19-.18.41-.35.8-.47,1.2-.23.75-.07,1.75.37,2.27.22.25.46.36.76.31.37-.05.71-.35,1.06-.68,1.1-1.04,2.19-2.13,3.22-3.24l.87-.93v1.27c0,.9.25,1.67.71,2.14.43.46,1.25.71,1.81.35.23-.15.42-.4.62-.67.18-.24.36-.48.61-.7.92-.83,2.2-.85,3.43-.8l6.92.27-.04,1-6.92-.27c-1.02-.04-2.08-.03-2.72.55-.17.15-.32.35-.47.56-.23.31-.49.65-.87.9-.9.59-2.26.37-3.08-.5-.48-.5-.73-1.11-.86-1.7-.82.85-1.66,1.69-2.52,2.49-.36.33-.9.84-1.6.94-.09.01-.18.02-.27.02h-.04Z"/>
    <path class="st2" d="M222.84,272.04l-.96-.29c.66-2.19,1.33-4.45,1.33-6.74-.01-4.25-2.58-8.37-6.39-10.24l.44-.9c4.14,2.04,6.94,6.52,6.95,11.14,0,2.44-.69,4.77-1.37,7.03h0Z"/>
    <path class="st2" d="M214.15,279.69l.45-2.36c.21-1.12.11-2.48,0-3.93-.14-1.84-.28-3.73.25-5.25l.94.33c-.47,1.32-.33,3.11-.2,4.84.05.72.11,1.45.12,2.15,1.83-3.19,2.98-6.76,3.35-10.42l1,.1c-.45,4.49-2.02,8.83-4.56,12.55l-1.35,1.99h0Z"/>
    <path class="st2" d="M204.91,282.64l-.53-.85c3.6-2.24,6.23-6.06,7.05-10.22l.98.19c-.87,4.42-3.67,8.49-7.5,10.88Z"/>
    <path class="st2" d="M179.52,284.84c-.65,0-1.31-.13-1.9-.49l-.42-.25.25-.43c.23-.4.48-.8.74-1.19-1.89,1.01-4.02,1.59-6.17,1.64l-.02-1c3.16-.07,6.27-1.38,8.54-3.58l.71.71c-1,1.05-1.89,2.21-2.65,3.45,1.14.38,2.55-.08,3.57-.49,3.14-1.26,6.07-2.97,8.71-5.08l.97-.78-.16,1.23c-.19,1.44-.52,2.85-.98,4.22,1.53-.87,2.69-2.43,3.03-4.15l.1-.53.52.15c1.12.32,1.18,1.48,1.23,2.42.04.73.07,1.41.48,1.69.26.18.67.18,1.28,0,2.21-.67,4.17-2.3,5.22-4.37l.89.46c-1.19,2.33-3.32,4.11-5.82,4.87-.34.1-1.36.41-2.14-.13-.8-.56-.85-1.57-.9-2.46-.02-.44-.05-.77-.11-1.01-.71,2.08-2.4,3.79-4.5,4.49l-1.02.34.4-1c.5-1.25.88-2.55,1.13-3.87-2.45,1.82-5.12,3.32-7.96,4.45-.84.34-1.92.7-3,.7h-.02Z"/>
    <path class="st2" d="M143.51,238.73l-.71-.7c4.35-4.39,10.1-7.29,16.22-8.17l.14.99c-5.9.85-11.45,3.65-15.65,7.88h0Z"/>
    <path class="st2" d="M151.12,262.79l-.33-.95c3.88-1.34,7.31-3.72,9.91-6.89l.77.64c-2.72,3.31-6.31,5.8-10.36,7.2h0Z"/>
    <path class="st2" d="M159.11,261.17l-.05-1c1.43-.08,2.68-1.13,3.82-2.25,1.9-1.87,3.69-3.89,5.32-6l.79.61c-1.65,2.15-3.47,4.2-5.41,6.11-1.28,1.26-2.71,2.44-4.47,2.54h0Z"/>
    <path class="st2" d="M167.58,259.94l-.67-.74c2.73-2.47,4.88-5.59,6.23-9.02l.93.37c-1.4,3.57-3.65,6.82-6.49,9.39h0Z"/>
    <path class="st2" d="M180.71,253.67l.35-1.1c1-3.11,1.63-6.35,1.86-9.61l1,.07c-.2,2.86-.7,5.69-1.48,8.44.97-.97,1.55-2.4,1.99-3.75.83-2.5,1.44-5.1,1.83-7.71l.99.15c-.39,2.67-1.02,5.32-1.87,7.87-.62,1.88-1.59,4.16-3.63,5.13l-1.05.5h0Z"/>
    <path class="st2" d="M188.24,244.53c-.08,0-.15,0-.24-.02l.13-.99c.8.1,1.23-1.31,1.34-2.07l.43-3.03.99.14-.43,3.03c-.2,1.39-.89,2.94-2.22,2.94h0Z"/>
    <path class="st2" d="M194.37,246.23l-.98-.17c.84-4.76.18-9.8-1.87-14.18l.91-.42c2.13,4.57,2.82,9.81,1.94,14.78h0Z"/>
    <path class="st2" d="M130.28,246.14c-2.33-.41-4.72-.74-7.08-1.01-.77-.09-1.52-.16-2.27-.15-.74,0-1.51.1-2.25.19-1.25.15-2.55.31-3.84.09l.17-.99c1.15.19,2.32.05,3.56-.1.77-.09,1.57-.19,2.36-.2.81-.01,1.59.07,2.39.16,2.38.26,4.78.61,7.14,1.02l-.17.99h0Z"/>
    <path class="st2" d="M78.47,237.4c-.88-5.8,1.81-11.88,6.7-15.13.97-.64,1.81-1.03,2.64-1.21.87-.19,1.74-.16,2.58-.13.55.02,1.08.04,1.59,0l.07,1c-.58.04-1.15.02-1.71,0-.82-.03-1.59-.06-2.33.1-.7.15-1.43.49-2.3,1.07-4.5,2.99-7.07,8.81-6.27,14.15l-.99.15h.02Z"/>
    <path class="st2" d="M105.82,239.2c-2.17,0-4.27-.43-5.48-2.15-.12-.17-.2-.29-.25-.31-.18-.09-.63.48-.79.67-1.17,1.45-3.23,2.04-4.99,1.45l-.25-.08-.07-.25c-.23-.82-.4-1.67-.5-2.52-1.26,1.3-2.84,2.31-4.56,2.88l-.65.22v-.68c-.03-1.07.02-2.14.13-3.2-.26.27-.55.54-.88.78-1.16.88-2.49,1.41-3.78,1.93l-.53.21-.14-.55c-.79-3.13.35-6.6,2.86-8.63l.63.78c-2.02,1.65-3.06,4.47-2.64,7.05,1.05-.43,2.1-.9,2.99-1.58.93-.71,1.59-1.6,1.86-2.52.04-.19.08-.38.12-.57l.98.17c-.03.22-.07.44-.13.66-.3,1.57-.47,3.16-.48,4.75,1.65-.68,3.14-1.81,4.23-3.23l.85-1.1.05,1.39c.04,1.09.2,2.18.48,3.23,1.3.33,2.8-.16,3.64-1.2.39-.48,1.12-1.38,2.01-.94.29.14.45.38.58.57,1.32,1.87,4.04,1.91,6.53,1.7l.08,1c-.63.05-1.27.09-1.91.09v-.02Z"/>
    <path class="st2" d="M110.61,215.42c-.17,0-.35-.03-.52-.1-.33-.12-.62-.37-.86-.73-.49-.73-.65-1.66-.49-2.75-.68,1.01-1.45,1.98-2.28,2.89-.2.22-.58.62-1.12.67-.93.07-1.45-.83-1.58-1.76-.42-3.03.6-5.73,1.53-7.46,1.05-1.96,2.57-3.82,4.77-5.86l.68.73c-2.12,1.96-3.57,3.74-4.57,5.6-1.22,2.26-1.72,4.69-1.42,6.85.06.45.3.93.51.9.15-.01.36-.24.46-.35,1.91-2.07,3.42-4.45,4.48-7.07l1.23-3.04-.26,3.26c-.08.96-.43,1.84-.77,2.69-.13.32-.26.65-.37.98-.32.93-.58,2.23.05,3.15.12.18.26.31.39.35.56.21,1.16-.77,1.4-1.32l1.62-3.71.84,3.5s0,.05.02.08c.04-.02.11-.05.2-.11.75-.5,1.48-1.04,2.17-1.61l.75-.62.07.97c.04.62.7,1.1,1.29,1.24.74.17,1.54,0,2.32-.16l.2.98c-.84.17-1.79.37-2.74.16-.7-.16-1.46-.62-1.83-1.32-.54.42-1.1.83-1.67,1.21-.68.45-1.12.31-1.37.11-.26-.21-.34-.52-.38-.68l-.15-.61-.43.98c-.55,1.25-1.33,1.95-2.15,1.95h-.02Z"/>
    <path class="st2" d="M152.8,227.92l-.57-.82c2.44-1.69,4.2-4.34,4.81-7.25l.98.21c-.66,3.16-2.57,6.02-5.22,7.86h0Z"/>
    <path class="st2" d="M157.24,227.15l-.6-.8c2.35-1.79,3.88-4.61,4.1-7.55l1,.07c-.24,3.23-1.91,6.32-4.49,8.28h0Z"/>
    <path class="st2" d="M163.02,223.62l-.84-.54c1.02-1.6,1.46-3.59,1.21-5.47l.99-.13c.28,2.11-.21,4.35-1.36,6.14h0Z"/>
    <path class="st2" d="M165.74,220.53c-.12-.8-.07-1.62-.03-2.41.07-1.24.14-2.41-.42-3.37-.08-.14-.17-.27-.27-.41-.25-.36-.53-.76-.62-1.27l.99-.17c.05.29.25.57.45.87.11.16.22.31.31.47.71,1.22.63,2.59.56,3.93-.04.78-.09,1.51.02,2.21l-.99.14h0Z"/>
    <path class="st2" d="M164.95,224.34l-.53-.85c3.52-2.22,5.45-6.79,4.6-10.86l.98-.21c.94,4.47-1.19,9.48-5.04,11.91h-.01Z"/>
    <g>
      <ellipse class="st0" cx="368.98" cy="123.45" rx="24.43" ry="30.15"/>
      <path class="st2" d="M368.98,154.1c-13.75,0-24.93-13.75-24.93-30.65s11.18-30.65,24.93-30.65,24.93,13.75,24.93,30.65-11.18,30.65-24.93,30.65ZM368.98,93.81c-13.2,0-23.93,13.3-23.93,29.65s10.74,29.65,23.93,29.65,23.93-13.3,23.93-29.65-10.74-29.65-23.93-29.65h0Z"/>
    </g>
    <g>
      <polygon class="st2" points="377.37 142.66 367.66 131.24 353.41 136.96 361.67 124.18 351.97 112.75 366.77 116.28 375.03 103.49 375.92 118.45 390.72 121.98 376.47 127.7 377.37 142.66"/>
      <path class="st2" d="M377.95,144.13l-10.44-12.29-15.38,6.18,8.91-13.79-10.45-12.3,15.95,3.79,8.89-13.77.96,16.11,15.97,3.8-15.38,6.17.96,16.1h.01ZM367.81,130.64l8.96,10.56-.83-13.83,13.13-5.27-13.63-3.24-.83-13.81-7.62,11.8-13.66-3.25,8.95,10.54-7.6,11.77,13.13-5.27h0Z"/>
    </g>
    <path class="st2" d="M350.48,30.71l.05-.57c.27-3.09.62-6.94-1.08-9.96-2-3.54-6.18-5.12-10.41-6.3-6.97-1.94-14.19-3.37-21.18-4.74-5.51-1.09-11.24-1.9-15.51,1.01l-.56-.83c4.59-3.13,10.55-2.29,16.26-1.17,7.01,1.38,14.25,2.81,21.25,4.76,4.44,1.24,8.84,2.91,11.02,6.78,1.75,3.1,1.53,6.85,1.26,9.97.65-.03,1.33-.07,2.04-.11,2.85-.16,6.07-.33,8.63-.08l-.1,1c-2.49-.25-5.67-.07-8.48.08-.92.05-1.8.1-2.62.13l-.57.02h0Z"/>
    <path class="st2" d="M352.44,26.68l-.15-.99c1.12-.17,2.14-.67,3.23-1.21.48-.24.97-.48,1.46-.68,1.26-.53,2.59-.88,3.95-1.02l.11.99c-1.26.14-2.5.45-3.67.95-.48.2-.94.43-1.41.66-1.11.54-2.25,1.11-3.52,1.3Z"/>
    <rect class="st2" x="351.42" y="20.16" width="7.56" height="1" transform="translate(31.16 167.59) rotate(-27.72)"/>
    <path class="st2" d="M350.54,18.76l-.55-.83c.85-.56,1.54-1.3,2.28-2.08.68-.72,1.38-1.47,2.22-2.07l.58.81c-.76.54-1.4,1.22-2.08,1.94-.75.79-1.52,1.61-2.46,2.23h0Z"/>
    <rect class="st2" x="347.38" y="13.17" width="5.63" height="1" transform="translate(94.24 253.06) rotate(-45.32)"/>
    <path class="st2" d="M345.87,14.36l-.48-.88c1.76-.95,3.35-2.17,4.75-3.6l.72.7c-1.47,1.51-3.14,2.78-4.99,3.78h0Z"/>
    <path class="st2" d="M341.36,12.71l-.77-.64c1.39-1.67,2.78-3.33,4.19-4.98l.76.65c-1.41,1.65-2.8,3.3-4.18,4.97h0Z"/>
    <path class="st2" d="M338.79,11.68l-.88-.49c1.05-1.89,2.72-3.4,4.71-4.25l.39.92c-1.79.76-3.29,2.12-4.23,3.82h.01Z"/>
    <path class="st2" d="M336.03,11.27l-.73-.69c1.06-1.12,2.07-2.32,3-3.56l.8.6c-.95,1.27-1.99,2.49-3.07,3.65h0Z"/>
    <path class="st2" d="M333,10.71l-.84-.54c.16-.24.33-.47.51-.69l2.21-2.82.79.62-2.21,2.82c-.16.2-.32.4-.46.62h0Z"/>
    <path class="st2" d="M330,9.95l-.84-.55c.75-1.14,1.57-2.26,2.43-3.31l.77.64c-.84,1.02-1.64,2.1-2.37,3.22h.01Z"/>
    <path class="st2" d="M325.56,9.27l-.96-.26c.08-.29.26-.51.39-.67l2.29-2.86.78.62-2.29,2.86c-.08.1-.18.22-.2.31h-.01Z"/>
    <path class="st2" d="M321.42,8.37l-.82-.57c.83-1.19,1.66-2.37,2.51-3.55l.81.59c-.84,1.17-1.68,2.35-2.5,3.53h0Z"/>
    <path class="st2" d="M315.08,7.27c-.13-1.45.01-2.9.41-4.3l.96.27c-.36,1.29-.49,2.61-.37,3.94l-1,.09Z"/>
    <path class="st2" d="M310.95,6.19c-.03-1.1-.02-2.2.02-3.27l1,.04c-.04,1.05-.05,2.13-.02,3.21l-1,.02Z"/>
    <g>
      <ellipse class="st2" cx="337.1" cy="57.45" rx="7.44" ry="7.99"/>
      <path class="st2" d="M337.1,65.94c-4.38,0-7.94-3.81-7.94-8.49s3.56-8.49,7.94-8.49,7.94,3.81,7.94,8.49-3.56,8.49-7.94,8.49ZM337.1,49.97c-3.83,0-6.94,3.36-6.94,7.49s3.12,7.49,6.94,7.49,6.94-3.36,6.94-7.49-3.12-7.49-6.94-7.49Z"/>
    </g>
    <g>
      <path class="st4" d="M182.79,197.29s13.22-24.9,14.44-40.79c0,0-98.18-51.78-107.29-50.22,0,0-20.54-6.81-46.53-7.19l4.43-7.85s66.32,10.67,65.94,16.1c0,0,47.27,20.44,97.33,47.22,0,0,49.07,23.8,91.26,37.87,0,0,62.28,18.89,64.57,17.35l41.84,7.87s9.59,17.72-4.37,45.11c0,0-69.96-4.99-133.49-27.54,0,0-37.78-12.5-66.27-28.58l-21.86-9.36h0Z"/>
      <path class="st2" d="M404.7,263.29l-.33-.02c-.7-.05-70.75-5.25-133.62-27.56-.37-.12-38.15-12.7-66.35-28.61l-22.31-9.55.26-.48c.13-.25,13.01-24.64,14.35-40.27-33.99-17.92-99.62-51.19-106.68-50.02l-.12.02-.12-.04c-.21-.07-20.78-6.79-46.38-7.17h-.84l5.01-8.9.34.06c.17.03,16.78,2.71,33.13,6.02,30.36,6.15,33.05,8.93,33.22,10.25,4.11,1.79,49.62,21.72,97.07,47.11.47.23,49.51,23.93,91.18,37.84,24.51,7.43,61.82,18.19,64.17,17.38l.17-.11.16.06,42.08,7.92.11.21c.1.18,2.46,4.61,3.11,12.48.6,7.23-.21,18.84-7.48,33.09l-.15.3h.02ZM183.48,197.04l21.36,9.15c28.16,15.89,65.85,28.44,66.23,28.56,60.53,21.48,127.73,27.07,133.04,27.49,7.01-13.88,7.8-25.16,7.22-32.2-.55-6.75-2.43-10.98-2.89-11.94l-41.52-7.81c-4.62.68-50.44-13.05-64.7-17.37-41.75-13.93-90.84-37.66-91.33-37.9-49.48-26.48-96.84-47.01-97.31-47.21l-.33-.14.02-.35c.22-3.1-32.91-10.31-65.18-15.52l-3.84,6.81c24.39.49,44.06,6.63,45.73,7.17,9.88-1.09,103.48,48.18,107.47,50.29l.29.15-.02.33c-1.11,14.59-12.4,36.95-14.24,40.5h0Z"/>
    </g>
    <path class="st2" d="M361.33,160.92c-14.22,0-27.45-7.96-38.16-14.4-3.95-2.38-8.04-4.84-11.17-8.42l.75-.66c3.02,3.46,7.04,5.88,10.93,8.22,10.94,6.58,24.57,14.77,39.01,14.23l.04,1c-.47.02-.94.03-1.41.03h.01Z"/>
    <path class="st2" d="M352.81,162.31c-7.43,0-14.95-1.87-21.47-5.38-3.08-1.65-5.97-3.68-8.78-5.63l-11.42-7.97.57-.82,11.42,7.97c2.78,1.94,5.65,3.95,8.68,5.57,7.3,3.93,15.88,5.75,24.15,5.14l.07,1c-1.07.08-2.15.12-3.23.12h.01Z"/>
    <path class="st2" d="M179.59,135.63c-.81-2.97-3.22-5.14-6.05-7.47l-10.49-8.65.64-.77,10.49,8.65c2.96,2.44,5.49,4.73,6.38,7.98l-.96.26h0Z"/>
    <path class="st2" d="M183.2,138.33l-.96-.28c.66-2.29.12-5.03-1.48-7.54-1.48-2.3-3.59-4.14-5.64-5.93l-6.84-5.95c-1.14-.99-2.32-2.02-3.64-2.75l.49-.87c1.41.79,2.63,1.85,3.81,2.88l6.84,5.95c2.1,1.83,4.27,3.72,5.82,6.14,1.76,2.75,2.35,5.8,1.6,8.36h0Z"/>
    <g>
      <path class="st4" d="M249.84,70.34l-7.17-4.25,4.49-6s9.41,2.93,17.03,7.61-6.3,2.64-6.3,2.64h-8.05Z"/>
      <path class="st2" d="M263.21,71.31c-1.78,0-3.85-.24-5.39-.47h-8.12l-7.77-4.59,5.04-6.73.34.1c.09.03,9.56,3,17.14,7.67,2.02,1.24,2.75,2.12,2.46,2.94-.3.83-1.84,1.09-3.7,1.09h0ZM249.98,69.84h7.92c4.02.59,7.77.6,8.08.03h0s-.01-.49-2.04-1.74c-6.67-4.1-14.84-6.88-16.58-7.45l-3.95,5.27,6.58,3.89h0Z"/>
    </g>
    <g>
      <polygon class="st4" points="264.48 81.91 260.09 77.66 272.68 77.66 276.85 81.32 264.48 81.91"/>
      <path class="st2" d="M264.29,82.42l-5.44-5.26h14.02l5.24,4.6-13.82.65h0ZM261.32,78.16l3.35,3.24,10.91-.52-3.09-2.72h-11.17Z"/>
    </g>
    <g>
      <circle class="st2" cx="314.17" cy="79.79" r="6.81"/>
      <path class="st2" d="M314.17,87.09c-4.03,0-7.31-3.28-7.31-7.31s3.28-7.31,7.31-7.31,7.31,3.28,7.31,7.31-3.28,7.31-7.31,7.31ZM314.17,73.48c-3.48,0-6.31,2.83-6.31,6.31s2.83,6.31,6.31,6.31,6.31-2.83,6.31-6.31-2.83-6.31-6.31-6.31Z"/>
    </g>
    <g>
      <circle class="st2" cx="293.37" cy="96.44" r="6.81"/>
      <path class="st2" d="M293.37,103.74c-4.03,0-7.31-3.28-7.31-7.31s3.28-7.31,7.31-7.31,7.31,3.28,7.31,7.31-3.28,7.31-7.31,7.31ZM293.37,90.13c-3.48,0-6.31,2.83-6.31,6.31s2.83,6.31,6.31,6.31,6.31-2.83,6.31-6.31-2.83-6.31-6.31-6.31Z"/>
    </g>
    <g>
      <circle class="st2" cx="270.8" cy="108.63" r="6.81"/>
      <path class="st2" d="M270.8,115.94c-4.03,0-7.31-3.28-7.31-7.31s3.28-7.31,7.31-7.31,7.31,3.28,7.31,7.31-3.28,7.31-7.31,7.31ZM270.8,102.33c-3.48,0-6.31,2.83-6.31,6.31s2.83,6.31,6.31,6.31,6.31-2.83,6.31-6.31-2.83-6.31-6.31-6.31Z"/>
    </g>
    <g>
      <circle class="st2" cx="220.34" cy="120.51" r="6.81"/>
      <path class="st2" d="M220.34,127.82c-4.03,0-7.31-3.28-7.31-7.31s3.28-7.31,7.31-7.31,7.31,3.28,7.31,7.31-3.28,7.31-7.31,7.31ZM220.34,114.2c-3.48,0-6.31,2.83-6.31,6.31s2.83,6.31,6.31,6.31,6.31-2.83,6.31-6.31-2.83-6.31-6.31-6.31Z"/>
    </g>
    <g>
      <circle class="st2" cx="190.14" cy="117.93" r="6.81"/>
      <path class="st2" d="M190.14,125.23c-4.03,0-7.31-3.28-7.31-7.31s3.28-7.31,7.31-7.31,7.31,3.28,7.31,7.31-3.28,7.31-7.31,7.31ZM190.14,111.62c-3.48,0-6.31,2.83-6.31,6.31s2.83,6.31,6.31,6.31,6.31-2.83,6.31-6.31-2.83-6.31-6.31-6.31Z"/>
    </g>
    <g>
      <circle class="st2" cx="245.79" cy="117.93" r="6.81"/>
      <path class="st2" d="M245.79,125.23c-4.03,0-7.31-3.28-7.31-7.31s3.28-7.31,7.31-7.31,7.31,3.28,7.31,7.31-3.28,7.31-7.31,7.31ZM245.79,111.62c-3.48,0-6.31,2.83-6.31,6.31s2.83,6.31,6.31,6.31,6.31-2.83,6.31-6.31-2.83-6.31-6.31-6.31Z"/>
    </g>
    <g>
      <path class="st4" d="M235.17,82.28l-4.36-2.49,4.36-5.44s2.08-.68,13.26,5.44c0,0,10.79,1.33-13.26,2.49Z"/>
      <path class="st2" d="M235.05,82.78l-4.99-2.85,4.81-6.01.14-.05c.38-.12,2.82-.45,13.57,5.43,2.79.36,2.77.93,2.76,1.24-.03.68-.05,1.46-16.15,2.23h-.15,0ZM231.57,79.64l3.72,2.13c9.56-.46,13.13-.94,14.44-1.25-.39-.09-.89-.18-1.37-.24l-.18-.06c-9.25-5.06-12.13-5.45-12.76-5.4l-3.86,4.82h0Z"/>
    </g>
    <g>
      <path class="st4" d="M226.36,87.71l-6.02-1.75,6.02-4.52s6.26-1.27,12.62,6.27h-12.62Z"/>
      <path class="st2" d="M240.06,88.21l-13.84-.02-6.98-2.03,7.02-5.21c.27-.05,6.62-1.24,13.1,6.44l.69.82h.01ZM226.43,87.21h11.44c-5.38-5.82-10.53-5.4-11.31-5.3l-5.12,3.85,4.99,1.45Z"/>
    </g>
    <g>
      <polygon class="st4" points="206.4 94.11 204.01 91.99 210.58 88.32 220.34 93.4 206.4 94.11"/>
      <path class="st2" d="M206.22,94.62l-3.07-2.72,7.42-4.14,11.63,6.05-15.98.82h0ZM204.87,92.08l1.71,1.52,11.9-.61-7.89-4.1-5.72,3.19h0Z"/>
    </g>
    <path class="st2" d="M226.47,133.23c-10.08,0-21.73-.71-35.14-2.48-8.46-1.12-22.37-1.91-23.69.74-.3.6-.81.99-1.49,1.13-3.75.79-12.43-6.36-13.4-7.18l-.23-.19,1.26-6.18c.07-.86,1.5-15.19,17.3-16.9.3,0,24.18.26,49.4-2.32,33.26-3.4,53.73-10.15,59.21-19.52l.13-.14c.14-.11,14.73-11.51,49.36-46.79.32-.51,2.65-4.04,7.7-5.2,5.19-1.2,11.31.51,18.18,5.1l11.94,11.93-.28.35c-.12.15-12.21,15.13-28.56,31.87-15.09,15.45-36.99,35.59-55.7,43.89-1.07.82-16.25,11.9-55.99,11.9h0ZM176.88,128.69c6.25,0,13.27.89,14.58,1.06,67.46,8.92,90.2-9.06,90.42-9.24l.12-.07c18.57-8.22,40.4-28.3,55.44-43.7,14.94-15.29,26.31-29.11,28.22-31.45l-11.22-11.24c-6.55-4.36-12.39-6.02-17.3-4.9-4.91,1.13-7.1,4.76-7.12,4.8l-.08.1c-33.42,34.06-48.24,45.93-49.43,46.86-13.77,23.16-105.47,22.29-109.38,22.24-15.3,1.66-16.32,15.42-16.36,16v.07l-1.15,5.63c2.73,2.25,9.64,7.35,12.33,6.78.38-.08.63-.27.8-.6.9-1.81,5.29-2.35,10.14-2.35h-.01Z"/>
    <path class="st2" d="M159.03,106.55c-5.37-5.77-12.6-9.73-20.35-11.17l.18-.98c7.96,1.47,15.38,5.54,20.9,11.47l-.73.68h0Z"/>
    <path class="st2" d="M165.39,103.46c-2.81-.31-5.54-1.32-7.88-2.92-.27-.19-.54-.38-.81-.58-.52-.38-1.02-.74-1.56-1.04-.95-.54-2.03-.89-3.08-1.23l-7.68-2.51.31-.95,7.68,2.51c1.09.36,2.22.73,3.26,1.31.58.33,1.13.72,1.65,1.1.26.19.52.38.79.56,2.21,1.5,4.77,2.46,7.43,2.75l-.11.99h0Z"/>
    <path class="st2" d="M192.32,181.17c17.31,8.45,34.62,16.91,51.94,25.35,16.58,8.08,33.36,15.97,51.27,20.68,10.17,2.67,20.54,4.48,30.95,5.93,1.34.19,2.68-.33,3.08-1.75.32-1.17-.4-2.89-1.75-3.08-9.22-1.29-18.4-2.84-27.45-5.04-8.87-2.16-17.53-5.02-26-8.44-17.18-6.94-33.69-15.6-50.33-23.72-9.73-4.75-19.46-9.5-29.19-14.25-1.21-.59-2.7-.33-3.42.9-.64,1.1-.32,2.83.9,3.42h0Z"/>
    <path class="st2" d="M408.68,227.54c-24.85-4.76-49.96-10.03-74.64-15.65-14.48-3.3-31.29-7.26-47.45-12.49-4.41-1.43-8.06-2.73-11.56-4.47-2.13-1.05-4.2-2.28-6.21-3.46-.8-.47-1.6-.94-2.4-1.4-9.57-5.5-20-9.75-30.1-13.87-12.18-4.96-24.77-10.1-35.93-17.45l.55-.83c11.08,7.3,23.63,12.41,35.76,17.36,10.12,4.13,20.59,8.4,30.22,13.93.81.46,1.61.94,2.41,1.41,1.99,1.17,4.05,2.39,6.14,3.43,3.45,1.71,7.06,3,11.43,4.42,16.12,5.23,32.9,9.18,47.36,12.47,24.67,5.62,49.77,10.88,74.6,15.64l-.19.98v-.02Z"/>
    <path class="st2" d="M405.28,261.37l-4.49-1.37.54-.58c.06-.06,2.26-2.74,3.23-13.56,0-.06.43-8.04,3.74-17.09l.12-.33h4.85l-.04.54c-.04.49-.94,11.79-4.03,15.55.08.87.24,4.23-.96,12.1l-.07.19-2.89,4.54h0ZM402.5,259.48l2.35.72,2.42-3.81c1.35-8.89.92-11.9.92-11.93l-.04-.23.16-.18c2.62-2.9,3.65-12.25,3.88-14.59h-3.06c-3.15,8.76-3.56,16.41-3.56,16.49-.78,8.62-2.32,12.25-3.07,13.55v-.02Z"/>
    <path class="st2" d="M326.34,234.18c19.37,3.63,38.74,7.29,58.11,10.98,5.53,1.05,11.06,2.11,16.6,3.16,1.32.25,2.7-.37,3.08-1.75.34-1.22-.41-2.82-1.75-3.08-19.36-3.7-38.73-7.37-58.1-11.02-5.53-1.04-11.07-2.08-16.6-3.12-1.33-.25-2.7.37-3.08,1.75-.33,1.22.41,2.83,1.75,3.08h0Z"/>
    <path class="st2" d="M412.33,215.25c-31.49-4.26-62.62-11.15-92.96-20.62-8.49-2.65-16.92-5.5-25.29-8.54-1.27-.46-2.74.52-3.08,1.75-.38,1.39.47,2.61,1.75,3.08,29.86,10.87,60.63,19.24,91.89,24.97,8.75,1.6,17.54,3,26.36,4.19,1.34.18,2.68-.32,3.08-1.75.32-1.16-.4-2.89-1.75-3.08h0Z"/>
    <path class="st2" d="M160.44,131.91c16.43,9.06,33.15,17.6,50.13,25.6s34.17,15.44,51.6,22.36c9.85,3.91,19.78,7.64,29.76,11.19,1.27.45,2.74-.51,3.08-1.75.38-1.38-.47-2.62-1.75-3.08-17.48-6.22-34.76-12.97-51.81-20.28s-33.97-15.21-50.58-23.61c-9.39-4.75-18.69-9.67-27.91-14.75-2.82-1.55-5.35,2.76-2.52,4.32h0Z"/>
    <path class="st2" d="M47.85,94.49c15.35,1.37,30.56,4.2,45.39,8.39s29.43,9.78,43.31,16.67c7.82,3.89,15.44,8.18,22.82,12.86,2.73,1.73,5.24-2.6,2.52-4.32-13.33-8.45-27.44-15.61-42.1-21.47-14.66-5.85-29.86-10.34-45.34-13.37-8.79-1.72-17.67-2.97-26.6-3.77-1.35-.12-2.5,1.24-2.5,2.5,0,1.45,1.15,2.38,2.5,2.5h0Z"/>
    <g>
      <path class="st4" d="M149.06,107.5s-6.77-18.63-44.24-25.23c0,0-20.53-8.46-54.99,6.04,0,0-6.42,5.52,10.93,5.79,0,0,46.89,3.08,88.33,28.94,0,0,7.94,6.54-.02-15.55h0Z"/>
      <path class="st2" d="M151.17,125.45c-1.06,0-2.15-.54-2.95-1.18-40.6-25.31-87.09-28.64-87.56-28.67-8.1-.12-12.35-1.4-13.3-4.03-.83-2.3,1.25-4.19,1.49-4.39l.18-.15.22-.09c33.44-14.07,53.84-6.94,55.98-6.11,37.75,6.7,44.95,25.37,45.24,26.16h0c4.96,13.75,3.92,16.81,2.24,17.99-.48.34-1.01.48-1.55.48h0ZM50.66,89.6c-.3.32-.56.77-.49.96.03.08.82,1.91,10.6,2.05.55.03,47.82,3.41,89.1,29.17l.16.11c.29.23.7.46.96.54.23-.64.6-3.48-3.35-14.41-.04-.12-1.78-4.55-7.84-9.69-5.67-4.82-16.4-11.26-35.26-14.58l-.31-.09c-.2-.08-20.35-7.97-53.58,5.93h0Z"/>
    </g>
    <g>
      <ellipse class="st6" cx="337.18" cy="57.92" rx="3.72" ry="4.13"/>
      <path class="st2" d="M337.18,62.55c-2.33,0-4.22-2.08-4.22-4.63s1.89-4.63,4.22-4.63,4.22,2.08,4.22,4.63-1.89,4.63-4.22,4.63ZM337.18,54.28c-1.78,0-3.22,1.63-3.22,3.63s1.44,3.63,3.22,3.63,3.22-1.63,3.22-3.63-1.44-3.63-3.22-3.63Z"/>
    </g>
    <g>
      <path class="st4" d="M267.3,111.12s-14.01-16.41-33.26-16.01h-11.31l-6.73-4.83s7.79-4.42,31.17,0c0,0,23.64,4.02,25.39,14.66,0,0,4.71,7.5-5.25,6.17h0Z"/>
      <path class="st2" d="M269.43,111.77c-.66,0-1.4-.05-2.19-.16l-.19-.03-.12-.15c-.14-.16-14.12-16.22-32.87-15.83h-11.48l-7.5-5.38.68-.39c.32-.18,8.22-4.46,31.5-.06.97.16,23.87,4.18,25.78,14.97.33.55,1.91,3.43.66,5.37-.7,1.09-2.13,1.64-4.26,1.64v.02ZM267.55,110.65c2.8.35,4.63-.02,5.3-1.05.84-1.31-.24-3.61-.72-4.38l-.07-.18c-1.67-10.17-24.75-14.21-24.98-14.24-18.93-3.58-27.61-1.3-30.07-.38l5.88,4.21h11.85c17.93,0,31.36,14.42,32.81,16.04v-.02Z"/>
    </g>
    <g>
      <path class="st4" d="M291.6,99.09s-5.78-5.43-25.14-10.35c0,0-5.7-1.89-23.8,0l-7.49-6.46s27.46-2.44,39.58.97c0,0,13.98,1.71,20.34,9.47,0,0,4.09,7.06-3.49,6.37h0Z"/>
      <path class="st2" d="M292.58,99.64c-.32,0-.66-.02-1.02-.05l-.17-.02-.13-.12c-.06-.05-5.96-5.41-24.92-10.23-.09-.03-5.92-1.84-23.62,0l-.21.02-8.55-7.38,1.18-.1c1.12-.1,27.69-2.41,39.76.99.5.06,14.18,1.81,20.59,9.64.13.21,2.08,3.64.74,5.74-.63.99-1.86,1.49-3.64,1.49h0ZM291.81,98.61c1.85.15,3.05-.19,3.56-1,.84-1.32-.23-3.79-.72-4.64-6.11-7.44-19.83-9.21-19.97-9.23-10.53-2.96-32.89-1.48-38.29-1.07l6.42,5.54c17.83-1.85,23.56-.03,23.79.04,17.89,4.55,24.2,9.49,25.19,10.34l.02.02Z"/>
    </g>
    <g>
      <path class="st4" d="M297.57,70.79l11.27,1.46s15.81,3.81,6.59,9.66c0,0-2.93,1.9-27.52-2.93l-13.62-1.32s-23.79-1.32-27.63.88l-6.92-3.95s.73-2.49,2.93-3.07,9.22-2.49,43.04-2.05l11.86,1.32h0Z"/>
      <path class="st2" d="M312.1,82.78c-3.58,0-10.62-.62-24.29-3.31l-13.57-1.31c-8.16-.45-24.4-.86-27.34.81l-.25.14-7.51-4.29.11-.38c.03-.11.84-2.77,3.28-3.42,2.34-.62,9.4-2.5,43.18-2.07l11.92,1.33,11.27,1.46c.99.24,9.25,2.33,9.88,6.08.25,1.53-.78,3.04-3.08,4.5-.13.09-.86.45-3.59.45h0ZM260.28,76.77c6.79,0,13.52.36,14.03.39l13.64,1.32c23.6,4.63,27.09,3.06,27.23,2.99,1.91-1.21,2.79-2.39,2.61-3.48-.44-2.62-6.7-4.69-9.07-5.26l-11.21-1.45-11.86-1.32c-33.6-.44-40.55,1.42-42.84,2.03-1.43.38-2.17,1.72-2.46,2.37l6.31,3.61c2.1-.94,7.88-1.2,13.61-1.2h0Z"/>
    </g>
    <g>
      <path class="st4" d="M242.03,119.13s-11.25-16.73-23.59-19.33c0,0-16.89-4.48-21.49-3.36,0,0-2.8-2.67,2.59-2.33,0,0,31.08.24,35.64,5.03,0,0,13.87,8.16,12.89,14.56,0,0,3.78,11.48-6.03,5.43h-.01Z"/>
      <path class="st2" d="M246.56,121.4c-1.21,0-2.8-.61-4.79-1.84l-.15-.15c-.11-.17-11.28-16.59-23.27-19.12-.19-.05-16.85-4.44-21.27-3.37l-.26.06-.2-.19c-.13-.12-1.21-1.19-.78-2.18.36-.83,1.55-1.15,3.75-1.01,1.25,0,31.1.3,35.92,5.13,1.12.66,13.91,8.43,13.09,14.91.3.94,1.64,5.61-.4,7.22-.44.35-.98.52-1.62.52l-.02.02ZM242.38,118.76c2.53,1.55,4.32,2.01,5.18,1.33,1.35-1.07.48-4.86.03-6.24l-.04-.11.02-.12c.92-5.99-12.51-13.98-12.65-14.06l-.11-.09c-4.36-4.58-34.97-4.87-35.28-4.87-2.48-.16-2.77.35-2.8.41-.08.19.14.58.39.87,5.02-.9,20.77,3.25,21.45,3.43,12.03,2.54,22.81,17.97,23.81,19.44h0Z"/>
    </g>
    <g>
      <path class="st4" d="M215.99,119.13s-3.06-17.65-17.76-18.47c0,0-1.63-2.94-16.34-3.1,0,0-2.16-3.22,4.57-1.12,0,0,19.71-.79,24.64,5.39,0,0,8.7.36,11.39,16.1,0,0-.02,10.69-6.51,1.2h0Z"/>
      <path class="st2" d="M220.33,123.55c-1.29,0-2.85-1.36-4.75-4.14l-.08-.2c-.03-.17-3.17-17.27-17.3-18.06l-.28-.02-.13-.24s-1.98-2.69-15.91-2.85h-.26l-.15-.22c-.08-.12-.77-1.2-.17-2,.63-.84,2.29-.81,5.23.1,1.6-.06,19.72-.57,24.83,5.41,1.46.17,9.12,1.78,11.63,16.49,0,.59-.06,4.99-2.14,5.63-.17.05-.34.08-.52.08v.02ZM216.47,118.93c2.49,3.61,3.69,3.71,4.09,3.59,1.08-.33,1.44-3.24,1.44-4.6-1.35-7.84-4.26-11.68-6.46-13.51-2.36-1.96-4.44-2.09-4.46-2.09h-.23l-.14-.19c-4.72-5.91-24.03-5.21-24.23-5.2h-.09l-.08-.02c-3.6-1.12-4.16-.55-4.21-.48-.09.12-.02.39.08.63,12.45.17,15.57,2.34,16.29,3.12,6.09.41,11.13,3.79,14.58,9.78,2.42,4.2,3.27,8.26,3.41,8.98h.01Z"/>
    </g>
    <g>
      <path class="st4" d="M186.34,117.14s-5.31-14.75-11.36-16.38c0,0-19.44-4-29.12-6.65,0,0,15.58-2.06,32.16,3.26,0,0,8.47-1.77,14.96,12.02,0,0,.15-1.99,1.03,7.75,0,0-3.97,8.11-7.67,0h0Z"/>
      <path class="st2" d="M189.98,121.24h-.04c-1.52-.02-2.88-1.33-4.05-3.9l-.02-.04c-.05-.15-5.29-14.53-11.02-16.06-.17-.03-19.54-4.03-29.12-6.65l-2.39-.65,2.46-.32c.16-.02,15.8-2,32.26,3.24,1.17-.18,8.99-.87,15.17,11.88.43.1.62.99,1.29,8.36v.14l-.05.13c-.08.16-1.93,3.88-4.49,3.88h0ZM186.81,116.95c.98,2.14,2.07,3.28,3.15,3.29,1.54.03,3.03-2.2,3.55-3.2-.4-4.35-.64-6.21-.77-7.01l-.21-.43c-3.27-6.94-7.02-9.76-9.59-10.91-2.76-1.23-4.8-.84-4.82-.84l-.13.03-.13-.04c-12.13-3.88-23.83-3.79-29.08-3.48,10.09,2.56,26.11,5.87,26.29,5.91,6.2,1.66,11.42,15.83,11.72,16.68h.02Z"/>
    </g>
    <path class="st2" d="M254.81,62.15l-1.81-.84c1.08-2.33,3.09-3.86,5.04-5.34.39-.29.77-.59,1.15-.88,3.68-2.91,6.72-6.7,9.65-10.36.51-.63,1.01-1.26,1.52-1.88,5.66-6.96,11.87-13.59,18.46-19.69l1.36,1.47c-6.52,6.04-12.67,12.59-18.27,19.48-.51.62-1.01,1.25-1.51,1.87-3.01,3.75-6.12,7.62-9.97,10.68-.39.31-.78.61-1.18.91-1.84,1.39-3.57,2.71-4.44,4.59h0Z"/>
  </g>
  <g id="hotspots">
    <circle id="hotspotLort" class="st3" cx="28.69" cy="296.62" r="28.69"/>
    <circle id="hotspotSnoerrebaand" class="st3" cx="198.82" cy="49.47" r="28.69"/>
    <circle id="hotspotSaal" class="st3" cx="352.19" cy="277.42" r="28.69"/>
  </g>
</svg>