<?xml version="1.0" encoding="UTF-8"?>
<svg xmlns="http://www.w3.org/2000/svg" xmlns:xlink="http://www.w3.org/1999/xlink" viewBox="0 0 540 340.51">
  <defs>
    <style>
      .cls-1 {
        fill: #2e4023;
      }
    </style>
  </defs>
  <g id="skitse">
    <image width="628" height="396" transform="scale(.86)" xlink:href="Skærmbillede 2025-12-27 kl. 15.17.21.png"/>
  </g>
  <g id="rentegning">
    <polygon class="cls-1" points="84.74 287.92 85.33 41.85 247.19 41.85 247.19 79.22 132.71 80.69 132.42 145.44 236.3 145.73 236.6 181.34 132.42 181.93 132.42 249.91 247.19 250.5 247.19 287.92 84.74 287.92"/>
    <path class="cls-1" d="M279.66,212.8h-50.14s-1.44,16.76,8.11,34.11c0,0,12.17,24.42,37.97,32.62,0,0,10.43,6.5,37.1,9.61,0,0,13.62.28,22.03,0,0,0,24.35.28,48.69-19.23,0,0,15.65-6.5,25.79-38.45,0,0,3.77-24.6-2.9-40.72,0,0-4.06-13.01-22.03-25.45,0,0-13.33-10.18-48.98-22.05,0,0-15.36-3.11-36.23-14.42,0,0-4.35,0-13.33-12.44,0,0-3.48-8.77.29-21.49,0,0,7.25-13.86,19.42-14.7,0,0,6.96-3.68,25.79,0,0,0,16.52,5.37,18.84,16.97,0,0,3.19,1.41,2.61,11.59h51.01s1.74-17.53-9.27-33.37c0,0-3.77-11.31-28.69-25.73,0,0-3.77-4.52-35.65-9.61,0,0-22.9-1.77-39.71,3.36,0,0-21.46,1.45-43.19,24.92,0,0-9.85,7.35-11.88,39.87,0,0-2.03,18.94,8.12,33.08,0,0,4.06,11.88,38.26,28.56,0,0,13.33,4.81,45.79,15.83,0,0,14.2,3.96,23.19,12.72,0,0,6.67,6.79,9.27,14.99,0,0,4.35,26.3-15.65,31.95,0,0-4.93,6.22-28.4,4.24,0,0-17.1.28-26.08-11.88,0,0-6.67-6.5-9.27-14.14l-.87-10.74Z"/>
  </g>
</svg>